<svg width="237" height="51" viewBox="0 0 237 51" fill="none" xmlns="http://www.w3.org/2000/svg">
<rect width="51" height="51" fill="black"/>
<path d="M29.84 11.24H19.92V16.2H29.84V11.24Z" fill="white"/>
<path d="M17.44 13.72H13.72V38.52H27.2062C26.1439 37.1604 25.5459 35.4957 25.5002 33.7709C25.4545 32.046 25.9636 30.352 26.9525 28.9381C27.9414 27.5241 29.3579 26.4649 30.9938 25.9161C32.6296 25.3673 34.3984 25.3579 36.04 25.8894V13.72H32.32V18.68H17.44V13.72Z" fill="white"/>
<path d="M34.8 27.05V28.7562C35.6866 28.9844 36.4765 29.4506 37.099 30.0855L38.5771 29.2312L39.8171 31.3788L38.3402 32.232C38.5817 33.1009 38.5817 34.0191 38.3402 34.888L39.8171 35.7412L38.5771 37.8888L37.099 37.0345C36.4677 37.6783 35.6729 38.1379 34.8 38.3638V40.07H32.32V38.3638C31.4471 38.1379 30.6523 37.6783 30.0211 37.0345L28.5418 37.8888L27.3018 35.7412L28.7798 34.888C28.5384 34.0191 28.5384 33.1009 28.7798 32.232L27.3018 31.3788L28.5418 29.2312L30.0211 30.0855C30.6523 29.4417 31.4471 28.9821 32.32 28.7562V27.05H34.8ZM31.3888 32.3609C31.1857 32.728 31.0791 33.1405 31.0788 33.56C31.0788 33.994 31.1916 34.4032 31.3888 34.7591L31.4334 34.8372C31.6538 35.2044 31.9655 35.5084 32.3381 35.7194C32.7108 35.9304 33.1318 36.0413 33.56 36.0413C33.9883 36.0413 34.4093 35.9304 34.7819 35.7194C35.1546 35.5084 35.4663 35.2044 35.6866 34.8372L35.7313 34.7591C35.9339 34.3919 36.0402 33.9794 36.04 33.56C36.04 33.126 35.9284 32.7168 35.7313 32.3609L35.6854 32.2828C35.465 31.9158 35.1534 31.6122 34.7808 31.4014C34.4083 31.1906 33.9875 31.0798 33.5594 31.0798C33.1314 31.0798 32.7106 31.1906 32.338 31.4014C31.9655 31.6122 31.6538 31.9158 31.4334 32.2828L31.3888 32.3609Z" fill="white"/>
<path d="M63.4873 27.9248H59.502V25.4111H63.4873C64.1032 25.4111 64.6045 25.3109 64.9912 25.1104C65.3779 24.9027 65.6608 24.6162 65.8398 24.251C66.0189 23.8857 66.1084 23.474 66.1084 23.0156C66.1084 22.5501 66.0189 22.1169 65.8398 21.7158C65.6608 21.3148 65.3779 20.9925 64.9912 20.749C64.6045 20.5055 64.1032 20.3838 63.4873 20.3838H60.6191V33.5H57.3965V17.8594H63.4873C64.7119 17.8594 65.7611 18.0814 66.6348 18.5254C67.5156 18.9622 68.1888 19.5674 68.6543 20.3408C69.1198 21.1143 69.3525 21.9987 69.3525 22.9941C69.3525 24.0039 69.1198 24.8776 68.6543 25.6152C68.1888 26.3529 67.5156 26.9222 66.6348 27.3232C65.7611 27.7243 64.7119 27.9248 63.4873 27.9248ZM76.582 33.7148C75.6797 33.7148 74.8704 33.5716 74.1543 33.2852C73.4382 32.9915 72.8294 32.5869 72.3281 32.0713C71.834 31.5557 71.4544 30.9577 71.1895 30.2773C70.9245 29.5898 70.792 28.8594 70.792 28.0859V27.6562C70.792 26.7754 70.9173 25.9697 71.168 25.2393C71.4186 24.5088 71.7767 23.875 72.2422 23.3379C72.7148 22.8008 73.2878 22.389 73.9609 22.1025C74.6341 21.8089 75.3932 21.6621 76.2383 21.6621C77.0618 21.6621 77.7923 21.7982 78.4297 22.0703C79.0671 22.3424 79.6006 22.7292 80.0303 23.2305C80.4671 23.7318 80.7965 24.3333 81.0186 25.0352C81.2406 25.7298 81.3516 26.5033 81.3516 27.3555V28.6445H72.1133V26.582H78.3115V26.3457C78.3115 25.916 78.2327 25.5329 78.0752 25.1963C77.9248 24.8525 77.6956 24.5804 77.3877 24.3799C77.0798 24.1794 76.6859 24.0791 76.2061 24.0791C75.7979 24.0791 75.4469 24.1686 75.1533 24.3477C74.8597 24.5267 74.6198 24.7773 74.4336 25.0996C74.2546 25.4219 74.1185 25.8014 74.0254 26.2383C73.9395 26.668 73.8965 27.1406 73.8965 27.6562V28.0859C73.8965 28.5514 73.9609 28.9811 74.0898 29.375C74.2259 29.7689 74.4157 30.109 74.6592 30.3955C74.9098 30.682 75.2106 30.904 75.5615 31.0615C75.9196 31.2191 76.3242 31.2979 76.7754 31.2979C77.334 31.2979 77.8532 31.1904 78.333 30.9756C78.82 30.7536 79.2389 30.4206 79.5898 29.9766L81.0938 31.6094C80.8503 31.9603 80.5173 32.2969 80.0947 32.6191C79.6794 32.9414 79.1781 33.2064 78.5908 33.4141C78.0036 33.6146 77.334 33.7148 76.582 33.7148ZM86.207 24.4121V33.5H83.1133V21.877H86.0244L86.207 24.4121ZM89.709 21.8018L89.6553 24.6699C89.5049 24.6484 89.3223 24.6305 89.1074 24.6162C88.8997 24.5947 88.71 24.584 88.5381 24.584C88.1012 24.584 87.7217 24.6413 87.3994 24.7559C87.0843 24.8633 86.8193 25.0244 86.6045 25.2393C86.3968 25.4541 86.2393 25.7155 86.1318 26.0234C86.0316 26.3314 85.9743 26.6823 85.96 27.0762L85.3369 26.8828C85.3369 26.1309 85.4121 25.4398 85.5625 24.8096C85.7129 24.1722 85.9313 23.6172 86.2178 23.1445C86.5114 22.6719 86.8695 22.3066 87.292 22.0488C87.7145 21.791 88.1979 21.6621 88.7422 21.6621C88.9141 21.6621 89.0895 21.6764 89.2686 21.7051C89.4476 21.7266 89.5944 21.7588 89.709 21.8018ZM97.4541 30.2881C97.4541 30.0661 97.3896 29.8656 97.2607 29.6865C97.1318 29.5075 96.8919 29.3428 96.541 29.1924C96.1973 29.0348 95.6995 28.8916 95.0479 28.7627C94.4606 28.6338 93.9128 28.4727 93.4043 28.2793C92.903 28.0788 92.4661 27.8389 92.0938 27.5596C91.7285 27.2803 91.4421 26.9508 91.2344 26.5713C91.0267 26.1846 90.9229 25.7441 90.9229 25.25C90.9229 24.763 91.0267 24.3047 91.2344 23.875C91.4492 23.4453 91.7536 23.0658 92.1475 22.7363C92.5485 22.3997 93.0355 22.1383 93.6084 21.9521C94.1885 21.7588 94.8402 21.6621 95.5635 21.6621C96.5732 21.6621 97.4398 21.8232 98.1631 22.1455C98.8936 22.4678 99.4521 22.9118 99.8389 23.4775C100.233 24.0361 100.43 24.6735 100.43 25.3896H97.3359C97.3359 25.0889 97.2715 24.8203 97.1426 24.584C97.0208 24.3405 96.8275 24.1507 96.5625 24.0146C96.3047 23.8714 95.9681 23.7998 95.5527 23.7998C95.209 23.7998 94.9118 23.8607 94.6611 23.9824C94.4105 24.097 94.2171 24.2546 94.0811 24.4551C93.9521 24.6484 93.8877 24.8633 93.8877 25.0996C93.8877 25.2786 93.9235 25.4398 93.9951 25.583C94.0739 25.7191 94.1992 25.8444 94.3711 25.959C94.543 26.0736 94.765 26.181 95.0371 26.2812C95.3164 26.3743 95.6602 26.4603 96.0684 26.5391C96.9062 26.7109 97.6546 26.9365 98.3135 27.2158C98.9723 27.488 99.4951 27.8604 99.8818 28.333C100.269 28.7985 100.462 29.4108 100.462 30.1699C100.462 30.6855 100.347 31.1582 100.118 31.5879C99.889 32.0176 99.5596 32.3936 99.1299 32.7158C98.7002 33.0309 98.1846 33.278 97.583 33.457C96.9886 33.6289 96.319 33.7148 95.5742 33.7148C94.4928 33.7148 93.5762 33.5215 92.8242 33.1348C92.0794 32.748 91.5137 32.2575 91.127 31.6631C90.7474 31.0615 90.5576 30.4456 90.5576 29.8154H93.4902C93.5046 30.238 93.612 30.5781 93.8125 30.8359C94.0202 31.0938 94.2816 31.2799 94.5967 31.3945C94.9189 31.5091 95.2663 31.5664 95.6387 31.5664C96.0397 31.5664 96.3727 31.5127 96.6377 31.4053C96.9027 31.2907 97.1032 31.1403 97.2393 30.9541C97.3825 30.7607 97.4541 30.5387 97.4541 30.2881ZM101.977 27.8066V27.5811C101.977 26.7288 102.098 25.9447 102.342 25.2285C102.585 24.5052 102.94 23.8786 103.405 23.3486C103.871 22.8187 104.444 22.4069 105.124 22.1133C105.804 21.8125 106.585 21.6621 107.466 21.6621C108.347 21.6621 109.131 21.8125 109.818 22.1133C110.506 22.4069 111.082 22.8187 111.548 23.3486C112.021 23.8786 112.379 24.5052 112.622 25.2285C112.866 25.9447 112.987 26.7288 112.987 27.5811V27.8066C112.987 28.6517 112.866 29.4359 112.622 30.1592C112.379 30.8753 112.021 31.502 111.548 32.0391C111.082 32.569 110.509 32.9808 109.829 33.2744C109.149 33.568 108.368 33.7148 107.487 33.7148C106.606 33.7148 105.822 33.568 105.135 33.2744C104.454 32.9808 103.878 32.569 103.405 32.0391C102.94 31.502 102.585 30.8753 102.342 30.1592C102.098 29.4359 101.977 28.6517 101.977 27.8066ZM105.07 27.5811V27.8066C105.07 28.2936 105.113 28.7484 105.199 29.1709C105.285 29.5934 105.421 29.9658 105.607 30.2881C105.801 30.6032 106.051 30.8503 106.359 31.0293C106.667 31.2083 107.043 31.2979 107.487 31.2979C107.917 31.2979 108.286 31.2083 108.594 31.0293C108.902 30.8503 109.149 30.6032 109.335 30.2881C109.521 29.9658 109.657 29.5934 109.743 29.1709C109.836 28.7484 109.883 28.2936 109.883 27.8066V27.5811C109.883 27.1084 109.836 26.6644 109.743 26.249C109.657 25.8265 109.518 25.4541 109.324 25.1318C109.138 24.8024 108.891 24.5446 108.583 24.3584C108.275 24.1722 107.903 24.0791 107.466 24.0791C107.029 24.0791 106.657 24.1722 106.349 24.3584C106.048 24.5446 105.801 24.8024 105.607 25.1318C105.421 25.4541 105.285 25.8265 105.199 26.249C105.113 26.6644 105.07 27.1084 105.07 27.5811ZM117.918 24.3584V33.5H114.824V21.877H117.725L117.918 24.3584ZM117.467 27.2803H116.629C116.629 26.4209 116.74 25.6475 116.962 24.96C117.184 24.2653 117.495 23.6745 117.896 23.1875C118.298 22.6934 118.774 22.3174 119.325 22.0596C119.884 21.7946 120.507 21.6621 121.194 21.6621C121.739 21.6621 122.236 21.7409 122.688 21.8984C123.139 22.056 123.525 22.3066 123.848 22.6504C124.177 22.9941 124.428 23.4489 124.6 24.0146C124.779 24.5804 124.868 25.2715 124.868 26.0879V33.5H121.753V26.0771C121.753 25.5615 121.681 25.1605 121.538 24.874C121.395 24.5876 121.184 24.387 120.904 24.2725C120.632 24.1507 120.296 24.0898 119.895 24.0898C119.479 24.0898 119.118 24.1722 118.81 24.3369C118.509 24.5016 118.258 24.7308 118.058 25.0244C117.864 25.3109 117.717 25.6475 117.617 26.0342C117.517 26.4209 117.467 26.8363 117.467 27.2803ZM133.494 30.8789V25.7012C133.494 25.3288 133.433 25.0101 133.312 24.7451C133.19 24.473 133 24.2617 132.742 24.1113C132.492 23.9609 132.166 23.8857 131.765 23.8857C131.421 23.8857 131.124 23.9466 130.873 24.0684C130.622 24.1829 130.429 24.3512 130.293 24.5732C130.157 24.7881 130.089 25.0423 130.089 25.3359H126.995C126.995 24.8418 127.11 24.3727 127.339 23.9287C127.568 23.4847 127.901 23.0944 128.338 22.7578C128.775 22.4141 129.294 22.1455 129.896 21.9521C130.504 21.7588 131.185 21.6621 131.937 21.6621C132.839 21.6621 133.641 21.8125 134.343 22.1133C135.045 22.4141 135.596 22.8652 135.997 23.4668C136.405 24.0684 136.609 24.8203 136.609 25.7227V30.6963C136.609 31.3337 136.649 31.8564 136.728 32.2646C136.806 32.6657 136.921 33.0166 137.071 33.3174V33.5H133.945C133.795 33.1849 133.68 32.791 133.602 32.3184C133.53 31.8385 133.494 31.3587 133.494 30.8789ZM133.902 26.4209L133.924 28.1719H132.194C131.786 28.1719 131.432 28.2184 131.131 28.3115C130.83 28.4046 130.583 28.5371 130.39 28.709C130.196 28.8737 130.053 29.0671 129.96 29.2891C129.874 29.5111 129.831 29.7546 129.831 30.0195C129.831 30.2845 129.892 30.5244 130.014 30.7393C130.135 30.9469 130.311 31.1117 130.54 31.2334C130.769 31.348 131.038 31.4053 131.346 31.4053C131.811 31.4053 132.216 31.3122 132.56 31.126C132.903 30.9398 133.168 30.7106 133.354 30.4385C133.548 30.1663 133.648 29.9085 133.655 29.665L134.472 30.9756C134.357 31.2692 134.2 31.5736 133.999 31.8887C133.806 32.2038 133.559 32.501 133.258 32.7803C132.957 33.0524 132.595 33.278 132.173 33.457C131.75 33.6289 131.249 33.7148 130.669 33.7148C129.931 33.7148 129.262 33.568 128.66 33.2744C128.066 32.9736 127.593 32.5618 127.242 32.0391C126.898 31.5091 126.727 30.9076 126.727 30.2344C126.727 29.6257 126.841 29.085 127.07 28.6123C127.299 28.1396 127.636 27.7422 128.08 27.4199C128.531 27.0905 129.093 26.8434 129.767 26.6787C130.44 26.5068 131.22 26.4209 132.108 26.4209H133.902ZM142.26 17V33.5H139.155V17H142.26ZM151.96 17.8594H154.688L158.706 29.3428L162.724 17.8594H165.452L159.802 33.5H157.61L151.96 17.8594ZM150.488 17.8594H153.206L153.7 29.0527V33.5H150.488V17.8594ZM164.206 17.8594H166.935V33.5H163.712V29.0527L164.206 17.8594ZM175.84 30.8789V25.7012C175.84 25.3288 175.779 25.0101 175.657 24.7451C175.535 24.473 175.346 24.2617 175.088 24.1113C174.837 23.9609 174.511 23.8857 174.11 23.8857C173.767 23.8857 173.469 23.9466 173.219 24.0684C172.968 24.1829 172.775 24.3512 172.639 24.5732C172.503 24.7881 172.435 25.0423 172.435 25.3359H169.341C169.341 24.8418 169.455 24.3727 169.685 23.9287C169.914 23.4847 170.247 23.0944 170.684 22.7578C171.12 22.4141 171.64 22.1455 172.241 21.9521C172.85 21.7588 173.53 21.6621 174.282 21.6621C175.185 21.6621 175.987 21.8125 176.688 22.1133C177.39 22.4141 177.942 22.8652 178.343 23.4668C178.751 24.0684 178.955 24.8203 178.955 25.7227V30.6963C178.955 31.3337 178.994 31.8564 179.073 32.2646C179.152 32.6657 179.267 33.0166 179.417 33.3174V33.5H176.291C176.141 33.1849 176.026 32.791 175.947 32.3184C175.876 31.8385 175.84 31.3587 175.84 30.8789ZM176.248 26.4209L176.27 28.1719H174.54C174.132 28.1719 173.777 28.2184 173.477 28.3115C173.176 28.4046 172.929 28.5371 172.735 28.709C172.542 28.8737 172.399 29.0671 172.306 29.2891C172.22 29.5111 172.177 29.7546 172.177 30.0195C172.177 30.2845 172.238 30.5244 172.359 30.7393C172.481 30.9469 172.657 31.1117 172.886 31.2334C173.115 31.348 173.383 31.4053 173.691 31.4053C174.157 31.4053 174.562 31.3122 174.905 31.126C175.249 30.9398 175.514 30.7106 175.7 30.4385C175.894 30.1663 175.994 29.9085 176.001 29.665L176.817 30.9756C176.703 31.2692 176.545 31.5736 176.345 31.8887C176.151 32.2038 175.904 32.501 175.604 32.7803C175.303 33.0524 174.941 33.278 174.519 33.457C174.096 33.6289 173.595 33.7148 173.015 33.7148C172.277 33.7148 171.607 33.568 171.006 33.2744C170.411 32.9736 169.939 32.5618 169.588 32.0391C169.244 31.5091 169.072 30.9076 169.072 30.2344C169.072 29.6257 169.187 29.085 169.416 28.6123C169.645 28.1396 169.982 27.7422 170.426 27.4199C170.877 27.0905 171.439 26.8434 172.112 26.6787C172.785 26.5068 173.566 26.4209 174.454 26.4209H176.248ZM184.369 24.3584V33.5H181.275V21.877H184.176L184.369 24.3584ZM183.918 27.2803H183.08C183.08 26.4209 183.191 25.6475 183.413 24.96C183.635 24.2653 183.947 23.6745 184.348 23.1875C184.749 22.6934 185.225 22.3174 185.776 22.0596C186.335 21.7946 186.958 21.6621 187.646 21.6621C188.19 21.6621 188.688 21.7409 189.139 21.8984C189.59 22.056 189.977 22.3066 190.299 22.6504C190.628 22.9941 190.879 23.4489 191.051 24.0146C191.23 24.5804 191.319 25.2715 191.319 26.0879V33.5H188.204V26.0771C188.204 25.5615 188.132 25.1605 187.989 24.874C187.846 24.5876 187.635 24.387 187.355 24.2725C187.083 24.1507 186.747 24.0898 186.346 24.0898C185.93 24.0898 185.569 24.1722 185.261 24.3369C184.96 24.5016 184.709 24.7308 184.509 25.0244C184.315 25.3109 184.169 25.6475 184.068 26.0342C183.968 26.4209 183.918 26.8363 183.918 27.2803ZM199.945 30.8789V25.7012C199.945 25.3288 199.884 25.0101 199.763 24.7451C199.641 24.473 199.451 24.2617 199.193 24.1113C198.943 23.9609 198.617 23.8857 198.216 23.8857C197.872 23.8857 197.575 23.9466 197.324 24.0684C197.074 24.1829 196.88 24.3512 196.744 24.5732C196.608 24.7881 196.54 25.0423 196.54 25.3359H193.446C193.446 24.8418 193.561 24.3727 193.79 23.9287C194.019 23.4847 194.352 23.0944 194.789 22.7578C195.226 22.4141 195.745 22.1455 196.347 21.9521C196.955 21.7588 197.636 21.6621 198.388 21.6621C199.29 21.6621 200.092 21.8125 200.794 22.1133C201.496 22.4141 202.047 22.8652 202.448 23.4668C202.856 24.0684 203.061 24.8203 203.061 25.7227V30.6963C203.061 31.3337 203.1 31.8564 203.179 32.2646C203.257 32.6657 203.372 33.0166 203.522 33.3174V33.5H200.396C200.246 33.1849 200.132 32.791 200.053 32.3184C199.981 31.8385 199.945 31.3587 199.945 30.8789ZM200.354 26.4209L200.375 28.1719H198.646C198.237 28.1719 197.883 28.2184 197.582 28.3115C197.281 28.4046 197.034 28.5371 196.841 28.709C196.647 28.8737 196.504 29.0671 196.411 29.2891C196.325 29.5111 196.282 29.7546 196.282 30.0195C196.282 30.2845 196.343 30.5244 196.465 30.7393C196.587 30.9469 196.762 31.1117 196.991 31.2334C197.22 31.348 197.489 31.4053 197.797 31.4053C198.262 31.4053 198.667 31.3122 199.011 31.126C199.354 30.9398 199.619 30.7106 199.806 30.4385C199.999 30.1663 200.099 29.9085 200.106 29.665L200.923 30.9756C200.808 31.2692 200.651 31.5736 200.45 31.8887C200.257 32.2038 200.01 32.501 199.709 32.7803C199.408 33.0524 199.047 33.278 198.624 33.457C198.201 33.6289 197.7 33.7148 197.12 33.7148C196.382 33.7148 195.713 33.568 195.111 33.2744C194.517 32.9736 194.044 32.5618 193.693 32.0391C193.35 31.5091 193.178 30.9076 193.178 30.2344C193.178 29.6257 193.292 29.085 193.521 28.6123C193.751 28.1396 194.087 27.7422 194.531 27.4199C194.982 27.0905 195.545 26.8434 196.218 26.6787C196.891 26.5068 197.672 26.4209 198.56 26.4209H200.354ZM212.804 21.877H215.607V33.1133C215.607 34.1732 215.371 35.0719 214.898 35.8096C214.433 36.5544 213.781 37.1165 212.943 37.4961C212.105 37.8828 211.132 38.0762 210.021 38.0762C209.535 38.0762 209.019 38.0117 208.475 37.8828C207.938 37.7539 207.422 37.5534 206.928 37.2812C206.441 37.0091 206.033 36.6654 205.703 36.25L207.067 34.4238C207.425 34.8392 207.841 35.1615 208.313 35.3906C208.786 35.627 209.309 35.7451 209.882 35.7451C210.44 35.7451 210.913 35.6413 211.3 35.4336C211.687 35.2331 211.984 34.9359 212.191 34.542C212.399 34.1553 212.503 33.6862 212.503 33.1348V24.5625L212.804 21.877ZM204.983 27.8281V27.6025C204.983 26.7145 205.091 25.9089 205.306 25.1855C205.528 24.4551 205.839 23.8285 206.24 23.3057C206.648 22.7829 207.143 22.3783 207.723 22.0918C208.303 21.8053 208.958 21.6621 209.688 21.6621C210.462 21.6621 211.11 21.8053 211.633 22.0918C212.156 22.3783 212.585 22.7865 212.922 23.3164C213.258 23.8392 213.52 24.4587 213.706 25.1748C213.899 25.8838 214.05 26.6608 214.157 27.5059V28C214.05 28.8092 213.889 29.5612 213.674 30.2559C213.459 30.9505 213.176 31.5592 212.825 32.082C212.474 32.5977 212.037 32.9987 211.515 33.2852C210.999 33.5716 210.383 33.7148 209.667 33.7148C208.951 33.7148 208.303 33.568 207.723 33.2744C207.15 32.9808 206.659 32.569 206.251 32.0391C205.843 31.5091 205.528 30.8861 205.306 30.1699C205.091 29.4538 204.983 28.6732 204.983 27.8281ZM208.077 27.6025V27.8281C208.077 28.3079 208.124 28.7555 208.217 29.1709C208.31 29.5863 208.453 29.9551 208.646 30.2773C208.847 30.5924 209.094 30.8395 209.388 31.0186C209.688 31.1904 210.043 31.2764 210.451 31.2764C211.017 31.2764 211.479 31.1582 211.837 30.9219C212.195 30.6784 212.464 30.3454 212.643 29.9229C212.822 29.5003 212.925 29.0133 212.954 28.4619V27.0547C212.94 26.6035 212.879 26.1989 212.771 25.8408C212.664 25.4756 212.514 25.1641 212.32 24.9062C212.127 24.6484 211.876 24.4479 211.568 24.3047C211.26 24.1615 210.895 24.0898 210.473 24.0898C210.064 24.0898 209.71 24.1829 209.409 24.3691C209.116 24.5482 208.868 24.7952 208.668 25.1104C208.475 25.4255 208.328 25.7979 208.228 26.2275C208.127 26.6501 208.077 27.1084 208.077 27.6025ZM223.363 33.7148C222.461 33.7148 221.652 33.5716 220.936 33.2852C220.219 32.9915 219.611 32.5869 219.109 32.0713C218.615 31.5557 218.236 30.9577 217.971 30.2773C217.706 29.5898 217.573 28.8594 217.573 28.0859V27.6562C217.573 26.7754 217.699 25.9697 217.949 25.2393C218.2 24.5088 218.558 23.875 219.023 23.3379C219.496 22.8008 220.069 22.389 220.742 22.1025C221.415 21.8089 222.174 21.6621 223.02 21.6621C223.843 21.6621 224.574 21.7982 225.211 22.0703C225.848 22.3424 226.382 22.7292 226.812 23.2305C227.248 23.7318 227.578 24.3333 227.8 25.0352C228.022 25.7298 228.133 26.5033 228.133 27.3555V28.6445H218.895V26.582H225.093V26.3457C225.093 25.916 225.014 25.5329 224.856 25.1963C224.706 24.8525 224.477 24.5804 224.169 24.3799C223.861 24.1794 223.467 24.0791 222.987 24.0791C222.579 24.0791 222.228 24.1686 221.935 24.3477C221.641 24.5267 221.401 24.7773 221.215 25.0996C221.036 25.4219 220.9 25.8014 220.807 26.2383C220.721 26.668 220.678 27.1406 220.678 27.6562V28.0859C220.678 28.5514 220.742 28.9811 220.871 29.375C221.007 29.7689 221.197 30.109 221.44 30.3955C221.691 30.682 221.992 30.904 222.343 31.0615C222.701 31.2191 223.105 31.2979 223.557 31.2979C224.115 31.2979 224.634 31.1904 225.114 30.9756C225.601 30.7536 226.02 30.4206 226.371 29.9766L227.875 31.6094C227.632 31.9603 227.299 32.2969 226.876 32.6191C226.461 32.9414 225.959 33.2064 225.372 33.4141C224.785 33.6146 224.115 33.7148 223.363 33.7148ZM232.988 24.4121V33.5H229.895V21.877H232.806L232.988 24.4121ZM236.49 21.8018L236.437 24.6699C236.286 24.6484 236.104 24.6305 235.889 24.6162C235.681 24.5947 235.491 24.584 235.319 24.584C234.882 24.584 234.503 24.6413 234.181 24.7559C233.866 24.8633 233.601 25.0244 233.386 25.2393C233.178 25.4541 233.021 25.7155 232.913 26.0234C232.813 26.3314 232.756 26.6823 232.741 27.0762L232.118 26.8828C232.118 26.1309 232.193 25.4398 232.344 24.8096C232.494 24.1722 232.713 23.6172 232.999 23.1445C233.293 22.6719 233.651 22.3066 234.073 22.0488C234.496 21.791 234.979 21.6621 235.523 21.6621C235.695 21.6621 235.871 21.6764 236.05 21.7051C236.229 21.7266 236.376 21.7588 236.49 21.8018Z" fill="black"/>
</svg>
