<svg width="51" height="51" viewBox="0 0 51 51" fill="none" xmlns="http://www.w3.org/2000/svg">
<rect width="51" height="51" fill="black"/>
<path d="M29.84 11.24H19.92V16.2H29.84V11.24Z" fill="white"/>
<path d="M17.44 13.72H13.72V38.52H27.2062C26.1439 37.1604 25.5459 35.4957 25.5002 33.7709C25.4545 32.046 25.9636 30.352 26.9525 28.9381C27.9414 27.5241 29.3579 26.4649 30.9938 25.9161C32.6296 25.3673 34.3984 25.3579 36.04 25.8894V13.72H32.32V18.68H17.44V13.72Z" fill="white"/>
<path d="M34.8 27.05V28.7562C35.6866 28.9844 36.4765 29.4506 37.099 30.0855L38.5771 29.2312L39.8171 31.3788L38.3402 32.232C38.5817 33.1009 38.5817 34.0191 38.3402 34.888L39.8171 35.7412L38.5771 37.8888L37.099 37.0345C36.4677 37.6783 35.6729 38.1379 34.8 38.3638V40.07H32.32V38.3638C31.4471 38.1379 30.6523 37.6783 30.0211 37.0345L28.5418 37.8888L27.3018 35.7412L28.7798 34.888C28.5384 34.0191 28.5384 33.1009 28.7798 32.232L27.3018 31.3788L28.5418 29.2312L30.0211 30.0855C30.6523 29.4417 31.4471 28.9821 32.32 28.7562V27.05H34.8ZM31.3888 32.3609C31.1857 32.728 31.0791 33.1405 31.0788 33.56C31.0788 33.994 31.1916 34.4032 31.3888 34.7591L31.4334 34.8372C31.6538 35.2044 31.9655 35.5084 32.3381 35.7194C32.7108 35.9304 33.1318 36.0413 33.56 36.0413C33.9883 36.0413 34.4093 35.9304 34.7819 35.7194C35.1546 35.5084 35.4663 35.2044 35.6866 34.8372L35.7313 34.7591C35.9339 34.3919 36.0402 33.9794 36.04 33.56C36.04 33.126 35.9284 32.7168 35.7313 32.3609L35.6854 32.2828C35.465 31.9158 35.1534 31.6122 34.7808 31.4014C34.4083 31.1906 33.9875 31.0798 33.5594 31.0798C33.1314 31.0798 32.7106 31.1906 32.338 31.4014C31.9655 31.6122 31.6538 31.9158 31.4334 32.2828L31.3888 32.3609Z" fill="white"/>
</svg>
